<svg width="63" height="61" viewBox="0 0 63 61" fill="none" xmlns="http://www.w3.org/2000/svg">
<path fill-rule="evenodd" clip-rule="evenodd" d="M23.625 45.75C10.579 45.75 0 35.2498 0 22.2958C0 11.9335 6.76928 3.14189 16.1562 0.040583C17.3369 -0.176528 17.7704 0.549378 17.7704 1.16886C17.7704 1.72776 17.7485 3.57572 17.7383 5.53555C11.1658 4.11675 9.77894 8.30284 9.77894 8.30284C8.70426 11.0134 7.15581 11.7347 7.15581 11.7347C5.01231 13.1904 7.31738 13.1605 7.31738 13.1605C9.68974 12.995 10.9389 10.7431 10.9389 10.7431C13.046 7.15786 16.4657 8.19448 17.8138 8.79377C18.0263 10.3093 18.6381 11.3443 19.3138 11.93C14.0663 12.5227 8.55012 14.5342 8.55012 23.5212C8.55012 26.0815 9.473 28.1741 10.9843 29.8166C10.739 30.4074 9.93034 32.7929 11.2135 36.0235C11.2135 36.0235 13.1974 36.6535 17.7117 33.619C19.5962 34.1386 21.6173 34.3993 23.625 34.4086C25.6327 34.3993 27.6554 34.1386 29.5434 33.619C34.0526 36.6535 36.0337 36.0235 36.0337 36.0235C37.3197 32.7929 36.511 30.4074 36.2657 29.8166C37.7805 28.1741 38.6968 26.0815 38.6968 23.5212C38.6968 14.5124 33.17 12.5293 27.9093 11.9487C28.7566 11.2208 29.5117 9.79349 29.5117 7.60529C29.5117 4.46708 29.4847 1.94137 29.4847 1.16886C29.4847 0.544329 29.9096 -0.186625 31.1071 0.0433032C40.4893 3.14811 47.25 11.9366 47.25 22.2958C47.25 35.2498 36.6726 45.75 23.625 45.75Z" transform="translate(0 61) scale(1.33333 -1.33333)" fill="#1B1817"/>
<path d="M0.632744 0.115121C0.580711 -0.00178509 0.396055 -0.0367403 0.227831 0.0432683C0.0560851 0.12017 -0.0397638 0.279022 0.0157894 0.395928C0.0666481 0.515553 0.251304 0.548954 0.422658 0.468946C0.594013 0.392432 0.691818 0.232027 0.632744 0.115121Z" transform="translate(11.0872 45.0532) scale(1.33333 -1.33333)" fill="#1B1817"/>
<path d="M0.621252 0.0546432C0.50858 -0.0490574 0.287932 -0.000896806 0.138877 0.163004C-0.0160458 0.326517 -0.0446048 0.54557 0.0696314 0.650436C0.185824 0.754136 0.39943 0.705588 0.553962 0.542075C0.708885 0.37662 0.739009 0.159897 0.621252 0.0546432Z" transform="translate(12.3786 46.3855) scale(1.33333 -1.33333)" fill="#1B1817"/>
<path d="M0.636275 0.0403396C0.491523 -0.0598654 0.254444 0.0337369 0.108127 0.242303C-0.036624 0.451258 -0.036624 0.701382 0.111648 0.801587C0.257965 0.901792 0.491523 0.811297 0.639796 0.604673C0.784156 0.392611 0.784156 0.142487 0.636275 0.0403396Z" transform="translate(13.6005 48.1675) scale(1.33333 -1.33333)" fill="#1B1817"/>
<path d="M0.810671 0.0853541C0.681177 -0.0564088 0.405367 -0.0183465 0.203497 0.175461C-0.00306725 0.364219 -0.0605766 0.632598 0.0689173 0.774361C0.200367 0.916512 0.477742 0.876508 0.681177 0.684642C0.886176 0.495884 0.94838 0.225563 0.810671 0.0853541Z" transform="translate(15.0693 49.9675) scale(1.33333 -1.33333)" fill="#1B1817"/>
<path d="M0.98823 0.218042C0.930721 0.0343323 0.665474 -0.0487835 0.397879 0.0292832C0.130676 0.10968 -0.0441998 0.324461 0.00978856 0.510112C0.0653418 0.694986 0.332154 0.781986 0.601705 0.698482C0.868517 0.618473 1.04378 0.404858 0.98823 0.218042Z" transform="translate(17.1799 51.1548) scale(1.33333 -1.33333)" fill="#1B1817"/>
<path d="M1.01561 0.357499C1.02226 0.16408 0.795351 0.00367441 0.514454 0.000178882C0.231994 -0.00603538 0.00312976 0.150486 0 0.340798C0 0.536159 0.222213 0.694623 0.504283 0.699672C0.785179 0.70511 1.01561 0.549365 1.01561 0.357499Z" transform="translate(19.7215 51.5281) scale(1.33333 -1.33333)" fill="#1B1817"/>
<path d="M1.00728 0.445458C1.04093 0.257088 0.845708 0.0632804 0.566768 0.0116243C0.292523 -0.0384782 0.0386213 0.0784276 0.00380267 0.265244C-0.0302335 0.458663 0.168115 0.65247 0.44236 0.702573C0.721692 0.750733 0.971681 0.637323 1.00728 0.445458Z" transform="translate(22.1314 51.2402) scale(1.33333 -1.33333)" fill="#1B1817"/>
</svg>
